<svg width="1911" height="1911" viewBox="0 0 1911 1911" fill="none" xmlns="http://www.w3.org/2000/svg">
<g clip-path="url(#clip0_2477_649)">
<path fill-rule="evenodd" clip-rule="evenodd" d="M925.304 2.9107C927.297 4.431 934.635 8.91941 941.611 12.8859C948.586 16.8543 960.476 24.0662 968.034 28.9152L981.773 37.7325L996.424 35.6396C1004.48 34.4871 1011.47 33.1408 1011.95 32.6443C1012.43 32.1496 1001.04 24.6098 986.631 15.8885L960.433 0.0332031L941.056 0.0911839C923.31 0.143733 921.984 0.381108 925.304 2.9107ZM791.676 13.1559C785.945 14.1381 781.258 15.488 781.258 16.1566C781.258 16.8253 783.907 18.8747 787.146 20.7103C790.386 22.5477 797.927 27.1013 803.906 30.8323C809.886 34.5632 826.497 44.7903 840.822 53.5606L866.868 69.5047L875.248 66.2647C879.858 64.4817 885.465 62.6171 887.707 62.1224C889.948 61.6259 891.783 60.6782 891.783 60.0168C891.783 58.83 874.049 47.4486 834.475 23.2417C812.803 9.98487 811.699 9.72395 791.676 13.1559ZM668.938 42.8388C661.473 45.1781 654.167 47.5519 652.703 48.1136C650.964 48.7823 653.778 51.1941 660.84 55.0827C674.605 62.6642 684.464 68.0732 732.804 94.5614L772.229 116.163L784.091 109.529C794.698 103.598 795.608 102.661 792.682 100.681C789.656 98.6331 706.163 51.4623 689.757 42.5308L682.509 38.586L668.938 42.8388ZM1048.12 55.7006C1041.22 56.5595 1041.51 55.3364 1038.56 96.0708C1037.44 111.518 1035.38 138.427 1033.97 155.868C1032.56 173.309 1029.73 209.187 1027.68 235.597C1025.62 262.008 1022.76 298.293 1021.31 316.233C1019.87 334.172 1017.42 365.157 1015.87 385.09C1014.32 405.022 1011.08 446.2 1008.66 476.597C1006.24 506.994 1003.38 544.095 1002.29 559.045C1001.21 573.994 999.568 593.972 998.647 603.439C997.727 612.907 995.968 635.126 994.739 652.817L992.502 684.981H985.459H978.414L979.429 676.374C979.987 671.641 980.898 657.574 981.453 645.116C982.009 632.658 983.25 609.827 984.214 594.379C985.178 578.932 986.8 550.8 987.818 531.864C988.836 512.928 990.487 483.166 991.485 465.725C992.482 448.284 994.93 405.067 996.924 369.687C998.918 334.308 1002.16 277.229 1004.12 242.845C1006.09 208.462 1008.59 164.022 1009.69 144.09C1010.79 124.157 1012.31 97.2486 1013.09 84.2926C1013.86 71.3366 1014.18 60.3774 1013.79 59.9389C1011.36 57.1502 943.223 71.4327 912.62 81.147L896.313 86.3239L896.667 96.1795C897.072 107.476 901.81 191.686 904.459 234.691C905.441 250.637 907.078 278.361 908.098 296.3C909.116 314.239 910.743 341.148 911.714 356.097C912.686 371.046 914.342 399.586 915.394 419.518C916.449 439.451 918.07 467.582 919 482.033C919.929 496.484 921.566 523.801 922.633 542.736C923.7 561.672 925.733 595.919 927.15 618.842C928.567 641.764 929.9 665.815 930.112 672.289L930.5 684.06L925.184 684.067C919.152 684.077 919.882 688.097 915.476 630.62C912.108 586.685 906.416 513.311 904.441 488.375C903.416 475.419 899.334 423.233 895.371 372.406C891.408 321.578 886.543 259.607 884.559 234.691C882.574 209.776 879.727 173.082 878.23 153.15C876.736 133.217 875.009 112.154 874.393 106.343C873.3 96.0201 873.164 95.8027 868.486 96.9388C859.644 99.0879 798.655 130.161 780.352 141.841C767.127 150.281 762.294 154.349 762.459 156.903C762.669 160.171 784.682 265.903 788.462 281.804C791.038 292.647 813.5 397.529 825.714 455.759C829.061 471.705 834.33 496.575 837.425 511.026C844.042 541.926 852.588 582.48 856.517 601.627C859.776 617.508 869.437 662.709 871.816 673.203C875.743 690.518 875.772 689.939 870.927 690.864C865.683 691.867 866.27 693.452 856.337 651.458C849.954 624.473 832.002 549.704 820.224 501.06C816.847 487.107 812.442 468.76 810.435 460.289C808.429 451.818 798.654 411.047 788.712 369.687C778.77 328.328 768.583 285.926 766.074 275.462C763.564 264.997 757.469 239.72 752.53 219.289C747.589 198.858 742.999 179.493 742.327 176.253C741.657 173.013 740.153 170.377 738.988 170.391C735.277 170.437 688.515 209.221 666.523 230.493L645.322 250.999L652.656 270.026C656.691 280.49 664.794 301.283 670.663 316.233C676.533 331.182 684.732 352.383 688.883 363.345C693.034 374.308 697.499 385.724 698.805 388.714C700.112 391.704 706.629 408.42 713.289 425.86C726.6 460.713 780.852 601.198 797.61 644.21C816.416 692.472 819.166 700.051 818.353 701.369C817.912 702.081 815.89 703.099 813.857 703.63C810.927 704.397 809.587 703.226 807.363 697.959C803.848 689.625 744.28 543.626 731.467 511.932C712.974 466.198 650.353 312.395 643.671 296.3C639.947 287.331 635.853 277.343 634.572 274.103C633.291 270.863 631.62 268.214 630.861 268.214C626.654 268.214 579.571 331.488 560.615 362.615L553.335 374.571L563.69 391.608C569.387 400.979 584.119 425.77 596.429 446.699C608.741 467.628 622.223 490.459 626.391 497.436C635.758 513.121 682.978 593.049 700.253 622.466C718.734 653.935 740.705 691.122 749.807 706.336C754.15 713.596 757.703 720.237 757.703 721.091C757.703 722.584 752.211 725.456 751.312 724.436C750.79 723.843 732.958 695.498 701.983 646.022C689.503 626.09 676.669 605.704 673.464 600.721C666.843 590.434 633.945 537.837 623.044 520.113C619.071 513.652 607.529 495.305 597.397 479.343C587.266 463.382 571.287 437.918 561.891 422.755C552.492 407.593 544.17 395.157 543.397 395.121C539.266 394.929 498.601 493.533 498.601 503.74C498.601 505.554 522.774 535.782 555.868 575.353C563.107 584.009 617.726 650.132 639.688 676.827C674.591 719.252 695.238 744.289 697.709 747.182C700.309 750.227 700.175 750.767 696.051 753.921C692.436 756.687 691.217 756.891 689.757 754.98C688.76 753.673 683.377 747.38 677.793 740.991C659.686 720.274 612.042 664.829 604.597 655.811C582.896 629.524 493.91 525.723 492.997 525.631C491.551 525.484 483.062 567.016 479.582 591.259C478.04 602.001 476.349 620.755 475.826 632.936L474.874 655.082L485.378 663.506C495.32 671.478 510.462 683.964 601.464 759.231C637.414 788.964 639.572 791.093 636.842 794.112C635.242 795.881 632.794 797.327 631.404 797.327C630.015 797.327 594.471 770.429 552.415 737.555C510.36 704.681 475.215 677.772 474.314 677.758C471.78 677.718 474.675 726.358 478.79 752.928C480.796 765.886 484.24 784.135 486.443 793.482L490.448 810.477L526.686 831.21C546.616 842.615 563.704 852.708 564.658 853.641C565.757 854.716 565.303 856.428 563.418 858.311C560.662 861.069 558.026 859.967 527.258 843.213L494.071 825.143L493.524 829.992C492.64 837.818 503.122 876.395 519.543 925.747C527.956 951.034 534.839 971.941 534.839 972.209C534.839 972.478 518.329 981.043 498.148 991.247C477.969 1001.45 453.304 1014.07 443.338 1019.29C433.373 1024.51 395.866 1043.68 359.991 1061.88C324.115 1080.08 284.163 1100.47 271.208 1107.19C258.253 1113.91 217.485 1134.71 180.613 1153.41C82.0761 1203.37 43.1111 1223.43 41.2703 1225.11C39.5 1226.73 41.8374 1233.72 53.3448 1261.21C60.6648 1278.69 70.893 1301.57 71.7863 1302.47C72.0545 1302.74 86.4591 1294.26 103.795 1283.62C139.682 1261.61 154.652 1252.46 200.544 1224.52C218.481 1213.6 236.011 1202.82 239.499 1200.58C246.482 1196.07 326.081 1147.4 374.486 1118.04C391.427 1107.76 411.403 1095.51 418.878 1090.81C426.352 1086.11 444.289 1075.11 458.739 1066.35C473.189 1057.6 500.712 1040.78 519.902 1028.98C539.092 1017.18 555.46 1007.52 556.278 1007.52C558.104 1007.52 564.136 1014.06 568.153 1020.39L571.144 1025.11L541.668 1045.36C525.455 1056.49 465.715 1097.49 408.912 1136.46C352.109 1175.43 290.55 1217.71 272.114 1230.42C253.678 1243.12 221.879 1264.97 201.449 1278.96C181.02 1292.96 161.859 1306.15 158.87 1308.29C155.88 1310.43 142.835 1319.37 129.879 1328.16C116.924 1336.96 104.083 1345.93 101.346 1348.12L96.3647 1352.08L101.217 1360.55C111.15 1377.89 136.174 1419.93 139.361 1424.62L142.662 1429.49L187.199 1392.91C211.694 1372.8 249.92 1341.25 272.143 1322.82C321.256 1282.07 371.859 1240.3 403.476 1214.39C416.431 1203.78 429.069 1193.34 431.561 1191.2C445.623 1179.12 590.388 1059.94 594.527 1057.04C597.444 1055 598.835 1055.56 605.539 1061.51L613.213 1068.32L596.223 1083.84C571.253 1106.65 475.315 1193.82 466.94 1201.31C462.979 1204.85 454.826 1212.27 448.821 1217.79C442.816 1223.32 433.01 1232.22 427.031 1237.58C421.052 1242.94 390.068 1271.06 358.179 1300.06C326.289 1329.06 290.821 1361.27 279.361 1371.64C211.991 1432.61 180 1461.66 175.333 1466.12L170.053 1471.16L184.207 1490.76C205.182 1519.81 225.644 1545.51 227.869 1545.61C228.945 1545.66 246.142 1527.96 266.082 1506.28C286.022 1484.61 313.586 1454.64 327.337 1439.69C341.089 1424.74 356.923 1407.62 362.526 1401.64C368.128 1395.66 381.302 1381.39 391.804 1369.93C402.306 1358.47 425.964 1332.78 444.378 1312.85C462.793 1292.92 487.579 1266.01 499.464 1253.05C511.346 1240.1 530.893 1218.9 542.902 1205.96C554.91 1193.01 569.22 1177.52 574.701 1171.53C580.182 1165.54 585.096 1160.23 585.619 1159.73C586.143 1159.23 599.49 1144.76 615.275 1127.57C631.062 1110.38 644.901 1096.33 646.03 1096.36C647.159 1096.39 650.677 1098.63 653.85 1101.34L659.617 1106.28L645.697 1122.74C638.039 1131.8 620.455 1152.59 606.618 1168.95C592.78 1185.31 578.41 1202.36 574.685 1206.85C570.958 1211.33 557.95 1226.82 545.778 1241.27C533.607 1255.73 516.178 1276.45 507.048 1287.33C497.918 1298.21 481.778 1317.38 471.18 1329.92C460.584 1342.45 424.873 1384.92 391.826 1424.29C327.252 1501.21 295.726 1538.59 273.491 1564.61C265.776 1573.64 259.457 1582.09 259.448 1583.39C259.425 1586.62 326.55 1653.97 327.521 1651.7C327.947 1650.7 333.854 1642.14 340.645 1632.67C347.436 1623.2 363.901 1599.97 377.233 1581.03C390.565 1562.09 411.556 1532.33 423.88 1514.89C436.205 1497.45 461.93 1460.95 481.051 1433.79C500.17 1406.62 519.891 1378.7 524.874 1371.74C529.856 1364.78 548.61 1338.29 566.547 1312.89C584.485 1287.48 608.27 1253.84 619.404 1238.12C630.536 1222.42 643.646 1203.86 648.534 1196.88C653.424 1189.9 666.171 1171.81 676.86 1156.68L696.294 1129.17L702.538 1132.85C705.971 1134.88 708.782 1137.27 708.782 1138.17C708.782 1139.68 692.288 1165.6 634.51 1254.86C622.254 1273.8 605.708 1299.49 597.743 1311.94C589.778 1324.4 578.972 1341.12 573.732 1349.09C568.492 1357.06 537.128 1405.58 504.035 1456.91C470.941 1508.23 437.631 1559.81 430.012 1571.54C381.163 1646.69 359.607 1680.86 360.308 1682.05C363.935 1688.19 442.853 1741.83 444.809 1739.49C445.869 1738.22 461.513 1708.48 488.614 1656.23C502.312 1629.82 516.586 1602.5 520.337 1595.53C524.085 1588.55 542.647 1553.08 561.581 1516.7C594.474 1453.51 624.588 1395.81 647.153 1352.71C652.893 1341.75 667.575 1313.62 679.78 1290.2C691.983 1266.78 705.433 1241.09 709.668 1233.12C713.9 1225.15 724.09 1205.58 732.311 1189.63C740.531 1173.69 747.806 1160.03 748.478 1159.29C749.808 1157.83 761.327 1161.6 761.327 1163.5C761.327 1164.65 752.066 1184.72 735.065 1220.44C730.321 1230.4 722.983 1245.89 718.756 1254.86C714.531 1263.83 706.977 1279.73 701.971 1290.2C689.441 1316.38 658.887 1380.79 651.683 1396.2C648.424 1403.18 638.737 1423.47 630.158 1441.3C621.58 1459.12 614.563 1473.91 614.563 1474.17C614.563 1474.42 608.549 1487.16 601.2 1502.46C593.851 1517.77 575.817 1555.57 561.128 1586.47C546.437 1617.36 530.724 1650.39 526.211 1659.85C479.341 1758.17 478.574 1759.94 481.866 1762.48C490.661 1769.25 574.248 1808.32 575.48 1806.24C575.649 1805.96 578.332 1798.79 581.439 1790.32C584.549 1781.85 591.151 1763.91 596.114 1750.45C601.075 1737 620.763 1682.78 639.864 1629.95C658.967 1577.13 675.843 1530.66 677.367 1526.67C678.892 1522.68 691.569 1488.03 705.538 1449.66C719.508 1411.29 733.365 1373.37 736.332 1365.4C739.299 1357.43 744.034 1344.38 746.851 1336.41C755.03 1313.27 765.489 1284.45 778.081 1250.33C784.519 1232.89 792.955 1209.8 796.829 1199L803.872 1179.39L809.268 1180.47C812.236 1181.06 815.189 1182.14 815.832 1182.87C816.474 1183.6 811.11 1202.13 803.914 1224.06C780.513 1295.35 724.864 1464.59 718.711 1483.18C715.411 1493.15 703.329 1529.84 691.862 1564.72C628.565 1757.25 609.127 1816.89 609.127 1818.62C609.127 1819.67 613.407 1821.79 618.639 1823.33C623.87 1824.87 636.342 1828.63 646.351 1831.68C667.497 1838.14 708.93 1848.3 714.13 1848.3C718.475 1848.3 717.21 1852.99 735.922 1767.67C744.008 1730.79 753.45 1687.99 756.906 1672.54C760.359 1657.09 764.329 1639.15 765.724 1632.67C767.119 1626.19 769.913 1613.56 771.932 1604.59C773.95 1595.62 779.283 1571.56 783.785 1551.13C801.756 1469.56 845.306 1272.52 853.467 1235.84L862.137 1196.88L867.901 1196.31C871.072 1196 873.664 1196.44 873.664 1197.29C873.664 1198.14 870.769 1213.48 867.229 1231.38C863.69 1249.28 859.254 1272.08 857.372 1282.04C845.716 1343.75 822.284 1465.95 819.324 1480.46C816.07 1496.42 799.277 1583.76 789.36 1636.3C775.122 1711.73 750.573 1839.14 748.748 1847.07C746.871 1855.22 745.704 1854.62 768.574 1857.27C806.523 1861.67 861.715 1864.01 865.83 1861.39C867.238 1860.49 869.843 1836.05 873.505 1789.39C876.554 1750.53 881.51 1687.35 884.516 1648.98C887.524 1610.61 890.81 1569.03 891.82 1556.57C893.367 1537.5 903.162 1412.77 909.823 1327.35C910.832 1314.39 913.289 1283.81 915.28 1259.39C917.273 1234.98 918.917 1212.35 918.933 1209.11C918.96 1203.59 919.362 1203.22 925.304 1203.22C931.56 1203.22 931.645 1203.32 931.616 1210.92C931.602 1215.16 930.375 1239.01 928.891 1263.92C927.409 1288.84 925.38 1324.31 924.381 1342.75C923.385 1361.19 921.761 1390.13 920.774 1407.08C919.786 1424.02 918.157 1453.37 917.152 1472.31C916.146 1491.24 914.506 1520.53 913.508 1537.39C912.51 1554.25 910.897 1583.6 909.928 1602.62C908.957 1621.64 907.717 1643.32 907.174 1650.79C904.065 1693.52 895.48 1858.04 896.317 1858.88C899.37 1861.93 966.118 1851.2 998.685 1842.43L1014.09 1838.27L1013.7 1822C1013.36 1807.27 1011.22 1768.36 1003.24 1631.77C1001.79 1606.85 999.756 1573.42 998.731 1557.47C997.705 1541.53 996.051 1513.4 995.056 1494.96C993.25 1461.5 989.296 1394.13 982.4 1279.33C977.559 1198.72 977.452 1203.22 984.19 1203.22C989.575 1203.22 989.626 1203.31 989.626 1213.26C989.626 1218.78 990.429 1230.81 991.411 1239.99C992.393 1249.17 994.4 1272.98 995.873 1292.92C999.392 1340.56 1007.18 1440.36 1010.57 1481.37C1012.06 1499.31 1014.04 1524.99 1014.99 1538.45C1015.93 1551.9 1017.93 1577.99 1019.43 1596.43C1020.93 1614.87 1023.02 1640.96 1024.07 1654.42C1025.12 1667.87 1026.73 1688.26 1027.66 1699.72C1028.59 1711.18 1031.14 1744.61 1033.33 1774.01C1035.52 1803.41 1037.88 1828.12 1038.56 1828.91C1040.73 1831.43 1074.45 1817.85 1110.12 1800.1C1129.05 1790.67 1146.48 1781.48 1148.84 1779.67L1153.14 1776.38L1142.98 1728.53C1137.39 1702.22 1131.26 1673.35 1129.35 1664.38C1127.45 1655.41 1118.02 1610.97 1108.4 1565.63C1098.79 1520.28 1088.84 1473.8 1086.3 1462.34C1083.76 1450.88 1079.38 1430.5 1076.58 1417.04C1060.61 1340.48 1031.29 1203.49 1030.34 1201.01C1029.59 1199.06 1030.5 1197.71 1033.12 1196.88C1035.26 1196.2 1037.42 1196.06 1037.93 1196.56C1038.74 1197.37 1050.49 1244.73 1067.46 1315.57C1070.44 1328.03 1076.62 1353.71 1081.18 1372.65C1090.3 1410.45 1096.55 1436.46 1106.46 1477.74C1110.06 1492.69 1114.96 1513.08 1117.37 1523.04C1123.6 1548.82 1133.45 1589.8 1140.01 1617.27C1143.11 1630.23 1148.4 1652.24 1151.77 1666.2C1155.15 1680.15 1160.82 1703.8 1164.38 1718.74C1167.94 1733.69 1171.79 1749.73 1172.95 1754.38L1175.04 1762.83L1179.73 1759.88C1197.96 1748.41 1240.31 1714.64 1260.03 1695.86L1274.05 1682.5L1268.4 1668.01C1265.3 1660.03 1257.5 1640.06 1251.08 1623.61C1244.65 1607.17 1236.26 1585.56 1232.42 1575.59C1228.58 1565.63 1222.46 1549.73 1218.81 1540.26C1215.16 1530.79 1210.28 1518.15 1207.95 1512.17C1189.3 1464.22 1175.27 1428.04 1156.29 1378.99C1144.14 1347.6 1122.98 1292.96 1109.27 1257.58C1078.79 1178.94 1080.95 1185.69 1085.76 1184.16C1087.9 1183.48 1090.32 1183.62 1091.13 1184.47C1091.95 1185.32 1097.89 1199.05 1104.33 1215C1110.78 1230.95 1125.02 1266.01 1135.98 1292.92C1146.95 1319.83 1162.2 1357.33 1169.89 1376.27C1177.57 1395.21 1189.41 1424.15 1196.19 1440.6C1202.98 1457.04 1216.27 1489.66 1225.72 1513.08C1269.43 1621.34 1287.13 1664.49 1288.38 1665.77C1291.79 1669.27 1335.68 1616.23 1362.62 1576.06L1372.03 1562.02L1344.57 1515.35C1329.47 1489.69 1310.82 1458.08 1303.13 1445.13C1258.44 1369.83 1251.3 1357.77 1249.28 1354C1248.05 1351.71 1239.38 1337.03 1230.01 1321.38C1220.63 1305.72 1200.5 1271.72 1185.26 1245.8C1170.02 1219.89 1153.24 1191.41 1147.97 1182.51C1142.7 1173.61 1138.8 1165.66 1139.31 1164.84C1141.91 1160.64 1146.37 1165.4 1159.55 1186.46C1167.51 1199.17 1184.82 1226.69 1198.03 1247.62C1211.24 1268.55 1232.23 1301.98 1244.67 1321.91C1257.12 1341.84 1271.94 1365.49 1277.61 1374.46C1297.03 1405.18 1315.34 1434.29 1342.01 1476.84C1356.68 1500.26 1371.98 1524.55 1376 1530.81L1383.32 1542.2L1386.98 1536.24C1394.74 1523.64 1417.27 1474.91 1425.26 1453.47C1432.44 1434.16 1433.27 1430.6 1431.16 1428.1C1427.17 1423.41 1371.62 1355.75 1364.69 1347.14C1361.2 1342.82 1347.69 1326.4 1334.67 1310.66C1198.3 1145.84 1192.48 1138.68 1193.85 1137.3C1194.47 1136.68 1195.64 1136.18 1196.45 1136.18C1197.69 1136.18 1245.75 1190.43 1298.54 1251.42C1402.83 1371.92 1437.31 1410.37 1439.28 1408.4C1446.33 1401.35 1466.38 1282.14 1461.3 1277.5C1457.06 1273.62 1295.24 1132.53 1276.37 1116.26C1263.92 1105.52 1255 1096.56 1255.89 1095.67C1256.78 1094.78 1270.44 1104.25 1287.25 1117.4C1303.64 1130.22 1333.67 1153.7 1354 1169.58C1374.33 1185.46 1406.05 1210.26 1424.48 1224.69C1442.92 1239.11 1459.15 1251.8 1460.55 1252.89C1462.72 1254.58 1462.93 1249.84 1462 1220.44C1460.91 1186.35 1457.78 1156.97 1452.55 1131.92C1451.07 1124.79 1449.85 1118.47 1449.85 1117.86C1449.85 1117.25 1441.49 1112.03 1431.28 1106.27C1421.06 1100.5 1407 1092.36 1400.02 1088.19C1393.05 1084.02 1382.85 1078.14 1377.37 1075.14C1360.5 1065.88 1318.57 1041.6 1317.05 1040.21C1316.26 1039.49 1316.78 1037.93 1318.2 1036.75C1321.12 1034.33 1323.27 1035.26 1393.86 1069.64C1417.38 1081.09 1438.33 1091 1440.42 1091.66C1444.13 1092.84 1444.1 1092.47 1438.93 1073.3C1425.01 1021.65 1402.14 967.957 1380.73 936.639C1374.13 926.981 1380.73 936.639 1369.22 919.639C1363.78 913.297 1363.78 913.297 1363.78 913.297C1356.77 907.861 1357.22 907.861 1356.77 907.861C1356.32 907.861 1352.5 914.179 1348.28 921.904C1319.26 974.951 1263.93 1033.67 1207.05 1071.78C1145.99 1112.69 1077.11 1138.95 1004.12 1149.13C978.43 1152.72 915.749 1152.22 889.972 1148.23C843.518 1141.04 804.368 1128.84 763.871 1108.95C718.892 1086.87 680.757 1058.95 642.125 1019.85C616.413 993.816 602.403 977.158 581.062 947.236L565.569 925.512L570.488 918.95C593.864 887.774 636.364 843.892 667.108 819.183C776.124 731.575 906.255 697.68 1043.08 721.254C1062.34 724.572 1071 726.955 1113.74 740.686C1188.04 764.558 1256.63 805.849 1310.93 859.389C1337.31 885.404 1342.29 888.323 1347.01 880.551C1348.26 878.488 1386.39 851.441 1431.73 820.446C1477.07 789.45 1523.14 757.855 1534.1 750.234C1545.06 742.612 1569.93 725.583 1589.36 712.388C1608.8 699.193 1640.6 677.495 1660.03 664.171C1679.46 650.848 1704.74 633.573 1716.2 625.785C1727.66 617.997 1752.93 600.654 1772.37 587.245C1791.8 573.836 1810.76 560.842 1814.49 558.369C1818.23 555.895 1821.29 553.188 1821.29 552.353C1821.29 550.046 1800.44 508.783 1789.16 488.785C1780.4 473.229 1778.82 471.355 1776.23 473.374C1772.07 476.606 1745.2 498.554 1727.98 512.791C1700.26 535.697 1662.51 566.938 1623.66 599.134C1602.16 616.95 1580.99 634.38 1576.6 637.868C1572.22 641.356 1562.9 649.133 1555.9 655.153C1548.89 661.171 1536.23 671.697 1527.76 678.543C1519.29 685.389 1508.28 694.391 1503.3 698.549C1493.83 706.453 1411.52 774.388 1363.32 814.088C1347.89 826.796 1334.71 837.191 1334.04 837.191C1332.53 837.191 1319.39 823.875 1319.39 822.342C1319.39 821.735 1363.22 781.421 1416.78 732.757C1470.35 684.095 1567.37 595.932 1632.4 536.842C1697.42 477.752 1750.62 428.562 1750.62 427.533C1750.62 423.956 1718.1 378.478 1701.85 359.328C1694.47 350.63 1692.16 349.967 1688.32 355.443C1686.83 357.574 1681.24 363.893 1675.91 369.486C1670.58 375.078 1656.49 390.254 1644.59 403.21C1632.7 416.166 1618.8 431.251 1613.7 436.733C1608.61 442.214 1593.58 458.522 1580.31 472.973C1554.84 500.701 1551.08 504.769 1515.08 543.617C1502.62 557.057 1491.61 568.953 1490.62 570.053C1489.62 571.151 1480.58 580.948 1470.54 591.822C1436.99 628.13 1338.75 734.632 1311.43 764.295C1295.99 781.069 1283.59 793.096 1282.44 792.42C1281.34 791.773 1277.8 789.261 1274.57 786.842L1268.71 782.443L1273.67 776.532C1276.39 773.279 1290.85 756.083 1305.8 738.316C1320.75 720.549 1341.95 695.328 1352.91 682.266C1363.87 669.207 1400.56 625.602 1434.45 585.37C1468.33 545.136 1509.48 496.252 1525.89 476.74C1568.33 426.261 1623.1 361.24 1642.52 338.263C1651.65 327.46 1659.68 317.631 1660.37 316.426C1662.19 313.223 1650.44 300.283 1619.61 271.553C1597.42 250.882 1592.02 246.676 1590.16 248.62C1588.9 249.929 1559.15 291.77 1524.04 341.601C1433.2 470.516 1411.29 501.538 1353.81 582.601C1343.21 597.55 1311.08 643.023 1282.42 683.651L1230.3 757.52L1223.15 753.503C1218.47 750.872 1216.35 748.581 1217.01 746.867C1217.99 744.318 1245.1 701.972 1282.15 645.116C1292.21 629.669 1307.22 606.429 1315.48 593.473C1323.75 580.517 1337.12 559.724 1345.2 547.266C1353.28 534.809 1369.73 509.359 1381.77 490.711C1407 451.602 1428.21 418.783 1502.14 304.454C1531.46 259.108 1555.54 221.114 1555.65 220.021C1555.99 216.551 1525.31 195.022 1486.64 171.593L1469.98 161.5L1448.34 202.625C1436.44 225.245 1419.99 256.798 1411.78 272.744C1403.56 288.69 1394.2 306.629 1390.97 312.608C1387.73 318.588 1379.16 334.896 1371.9 348.849C1360.15 371.447 1349.67 391.461 1312.11 463.007C1306.36 473.97 1292.31 500.878 1280.89 522.804C1269.47 544.73 1254.79 572.861 1248.26 585.319C1205.05 667.803 1178.06 719.908 1178.01 720.935C1177.97 721.591 1176.81 723.63 1175.42 725.463C1173.16 728.448 1172.21 728.553 1166.42 726.458C1162.86 725.172 1159.94 723.514 1159.94 722.774C1159.94 721.481 1179.03 680.833 1207.77 620.926C1215.35 605.128 1221.55 591.987 1221.55 591.725C1221.55 591.462 1229.25 575.29 1238.65 555.788C1248.06 536.286 1257.75 515.994 1260.19 510.694C1262.62 505.396 1277.45 474.151 1293.14 441.263C1308.83 408.374 1324.72 374.942 1328.45 366.969C1332.17 358.996 1347.27 327.195 1361.98 296.3C1376.69 265.405 1392.19 232.789 1396.42 223.819C1400.65 214.849 1408.18 198.949 1413.15 188.484C1429.77 153.489 1433.54 145.159 1433.54 143.414C1433.54 139.628 1338.93 97.6745 1336.3 100.298C1335.93 100.673 1329.47 118.02 1321.94 138.844C1314.42 159.668 1305.93 182.822 1303.07 190.296C1300.22 197.771 1288.8 229.164 1277.71 260.06C1266.61 290.955 1256.01 320.31 1254.14 325.293C1240.37 362.108 1226.28 400.329 1225.1 404.116C1224.32 406.608 1221.27 415.169 1218.32 423.142C1215.37 431.115 1197.69 479.632 1179.03 530.958C1160.36 582.284 1141.5 634.063 1137.11 646.022C1132.72 657.982 1126 676.328 1122.17 686.793C1118.06 698.013 1114.1 706.035 1112.52 706.345C1111.04 706.635 1107.71 706.064 1105.11 705.074L1100.38 703.279L1106.42 685.523C1109.74 675.758 1127.29 622.511 1145.42 567.199C1163.55 511.887 1184.93 446.653 1192.93 422.236C1200.93 397.819 1218.87 343.187 1232.8 300.83C1246.72 258.474 1267.08 196.503 1278.02 163.116C1288.97 129.729 1299.09 99.3361 1300.51 95.5743C1303 88.9749 1302.94 88.6778 1298.86 87.1248C1282.72 80.9893 1215.54 65.1105 1197.29 63.1191L1192.05 62.5483L1187.74 81.5746C1185.38 92.0391 1181.87 107.94 1179.95 116.909C1178.03 125.879 1167.4 173.988 1156.33 223.819C1145.26 273.65 1134.71 321.352 1132.9 329.823C1131.08 338.294 1124.54 368.057 1118.34 395.962C1070.66 610.887 1053.04 690.564 1053.04 691.336C1053.04 692.544 1046.72 692.47 1043.47 691.221C1041.4 690.43 1041.16 688.585 1042.34 682.614C1046.47 661.751 1058.78 597.773 1062.98 575.353C1065.6 561.4 1070.99 533.269 1074.97 512.838C1081.25 480.615 1097.52 395.754 1102.08 371.499C1102.92 367.015 1106.13 350.299 1109.22 334.353C1114.55 306.828 1117.31 292.432 1125.42 249.64C1127.35 239.426 1132.27 213.943 1136.34 193.014C1140.41 172.086 1145.29 146.808 1147.18 136.842C1149.07 126.875 1153.19 105.405 1156.34 89.1307C1159.49 72.8551 1161.76 59.2304 1161.38 58.8517C1158.17 55.6372 1068.62 53.1456 1048.12 55.7006ZM537.735 95.2663C528.865 99.6659 521.21 103.661 520.724 104.147C520.239 104.633 521.79 105.771 524.169 106.678C526.55 107.584 537.059 112.43 547.522 117.444C594.059 139.746 680.387 179.419 682.259 179.363C683.393 179.33 689.586 175.099 696.022 169.96L707.722 160.619L686.057 150.14C674.14 144.376 650.121 132.748 632.682 124.299C563.384 90.7235 555.643 87.0324 554.77 87.1484C554.272 87.2154 546.606 90.8685 537.735 95.2663ZM422.327 161.757C413.206 167.987 405.642 173.771 405.517 174.611C405.392 175.452 411.811 178.81 419.783 182.072C427.756 185.333 448.547 193.917 465.987 201.143C483.426 208.371 504.626 217.062 513.096 220.454C521.567 223.848 530.128 227.38 532.121 228.302C544.596 234.077 602.068 257.342 603.856 257.342C604.557 257.342 610.176 251.648 616.346 244.69C627.367 232.258 627.489 232.008 623.327 230.226C620.999 229.23 588.924 215.257 552.052 199.177C457.781 158.062 440.16 150.432 439.495 150.432C439.174 150.432 431.448 155.529 422.327 161.757ZM315.927 244.853C306.726 253.06 299.475 260.609 299.816 261.631C300.156 262.653 314.242 268.154 331.118 273.858C347.994 279.561 393.194 294.939 431.561 308.033C469.928 321.125 510.054 334.813 520.73 338.448C531.404 342.085 540.461 344.689 540.855 344.236C545.852 338.495 561.623 312.436 560.63 311.565C559.898 310.923 541.362 304.072 519.438 296.338C497.514 288.605 447.777 270.877 408.912 256.947C370.047 243.014 336.991 231.237 335.454 230.775C333.764 230.268 326.05 235.829 315.927 244.853ZM229.534 332.958C217.724 346.727 205.071 362.818 205.099 364.029C205.113 364.65 235.894 373.625 273.498 383.975C311.104 394.324 355.733 406.651 372.674 411.37C389.615 416.086 416.114 423.387 431.561 427.591C447.007 431.797 466.442 437.298 474.747 439.817C483.053 442.337 490.448 443.693 491.18 442.83C493.655 439.916 508.221 405.883 507.36 405.024C506.637 404.299 481.622 396.594 463.269 391.444C454.161 388.888 419.631 378.534 339.154 354.231C323.707 349.567 309.439 345.325 307.446 344.805C305.453 344.285 289.216 339.477 271.365 334.123C253.514 328.768 238.43 324.414 237.845 324.446C237.26 324.479 233.52 328.308 229.534 332.958ZM152.287 436.29C150.66 439.025 143.925 450.156 137.323 461.028C130.718 471.899 125.527 480.991 125.786 481.234C126.23 481.653 172.847 488.774 226.816 496.667C240.269 498.633 261.876 501.835 274.831 503.78C287.787 505.726 326.516 511.405 360.897 516.4C395.278 521.396 431.189 526.716 440.7 528.22C464.521 531.991 463.706 532.151 466.117 523.257C467.266 519.022 468.862 513.517 469.667 511.026C474.246 496.829 474.372 497.079 461.002 494.045C449.428 491.421 330.989 466.553 303.822 461.045C296.846 459.629 283.8 456.935 274.831 455.058C265.863 453.18 245.886 449.045 230.44 445.867C214.993 442.691 193.117 438.113 181.827 435.694C156.286 430.224 155.895 430.231 152.287 436.29ZM77.6279 577.189C70.8133 592.779 65.5497 605.848 65.9302 606.23C66.6495 606.948 127.386 609.356 223.192 612.463C253.587 613.451 316.617 615.584 363.259 617.205C409.903 618.829 448.593 619.626 449.239 618.979C450.267 617.954 455.349 581.077 454.525 580.651C454.351 580.563 424.041 577.859 387.169 574.644C350.297 571.428 302.599 567.24 281.173 565.338C172.189 555.656 119.358 551.045 105.419 549.997L90.0176 548.839L77.6279 577.189ZM1814.95 621.016C1788.46 637.353 1591.44 757.997 1506.92 809.629C1456.57 840.391 1378.53 888.198 1377.95 888.633C1377.77 888.769 1382.48 895.272 1388.4 903.086C1394.32 910.899 1400.34 918.959 1401.76 920.998C1404.3 924.622 1405.17 924.294 1441.15 906.07C1461.38 895.821 1478.75 886.85 1479.74 886.134C1480.74 885.419 1504.39 873.182 1532.29 858.943C1560.19 844.704 1588.73 830.018 1595.71 826.303C1602.68 822.588 1631.22 807.92 1659.12 793.703C1687.03 779.487 1713.93 765.622 1718.92 762.889C1723.9 760.157 1750.68 746.32 1778.43 732.139C1806.18 717.96 1838.48 701.334 1850.23 695.193L1871.57 684.028L1862.75 658.683C1857.89 644.743 1851.81 627.018 1849.23 619.295C1846.65 611.572 1843.59 605.279 1842.43 605.311C1841.27 605.344 1828.9 612.411 1814.95 621.016ZM413.442 666.232C403.975 666.467 364.838 667.533 326.471 668.598C288.104 669.664 225.321 671.327 186.954 672.297C148.587 673.264 100.008 674.562 79.0031 675.18L40.8082 676.301L35.0681 696.496C29.2248 717.056 23.7184 739.782 24.4142 740.476C24.6243 740.686 34.1712 740.11 45.6297 739.195C100.652 734.801 159.937 729.814 215.945 724.869C238.367 722.89 287.696 718.768 325.565 715.711C416.214 708.39 447.866 705.518 448.863 704.522C449.314 704.072 449.151 695.005 448.5 684.376L447.317 665.048L438.986 665.425C434.404 665.632 422.909 665.994 413.442 666.232ZM1856.62 753.872C1825.63 768.102 1817.74 771.692 1775.08 791.012C1758.14 798.684 1738.57 807.634 1731.6 810.902C1724.62 814.17 1706.69 822.344 1691.74 829.07C1676.79 835.794 1659.26 843.724 1652.78 846.69C1646.3 849.656 1632.85 855.743 1622.89 860.215C1603.25 869.029 1591.22 874.488 1578.49 880.367C1574.01 882.438 1536.93 899.302 1496.1 917.843C1455.27 936.382 1421.58 951.831 1421.24 952.174C1420.9 952.514 1422.99 957.566 1425.87 963.397C1428.76 969.229 1433.02 978.892 1435.33 984.872C1437.65 990.852 1440.07 996.357 1440.71 997.107C1441.36 997.855 1450.4 995.141 1460.81 991.074C1471.23 987.006 1506.65 973.487 1539.54 961.027C1572.42 948.57 1609.52 934.438 1621.98 929.623C1634.44 924.809 1670.72 910.97 1702.61 898.871C1759.51 877.283 1768.46 873.871 1806.79 859.148C1817.26 855.129 1842.13 845.634 1862.06 838.049C1881.99 830.463 1898.98 823.592 1899.81 822.777C1901.57 821.055 1898.98 802.156 1892.6 770.146C1887.28 743.471 1886.67 741.116 1885.04 741.273C1884.35 741.339 1871.57 747.008 1856.62 753.872ZM419.783 751.31C387.071 756.076 333.39 763.489 263.96 772.83C238.05 776.314 205.436 780.77 191.484 782.731C177.532 784.691 153.887 787.953 138.939 789.979C123.991 792.003 94.638 796.053 73.7105 798.976C52.7831 801.898 30.9316 804.861 25.1516 805.559C19.3716 806.256 13.5989 807.871 12.3233 809.147C10.9862 810.484 8.69776 822.864 6.92209 838.373C5.22616 853.17 3.39069 868.86 2.83987 873.24L1.8397 881.204L7.87878 880.153C11.2 879.575 78.7386 865.975 157.964 849.932C237.189 833.888 308.533 819.53 316.505 818.024C324.478 816.518 333.854 814.592 337.342 813.742C340.83 812.894 369.367 807.081 400.759 800.828C432.15 794.574 458.107 789.256 458.442 789.008C459.843 787.975 452.242 747.746 450.586 747.432C449.589 747.242 435.728 748.989 419.783 751.31ZM456.021 831.009C451.039 832.212 420.871 839.846 388.981 847.971C357.092 856.098 300.425 870.504 263.054 879.984C119.61 916.377 79.813 926.525 45.6261 935.422C26.1934 940.481 7.99473 945.011 5.18266 945.491L0.0712891 946.363L0.652907 984.044C0.973614 1004.77 1.76905 1022.26 2.42314 1022.91C3.07543 1023.56 23.0516 1017.85 46.8147 1010.21C70.576 1002.58 111.625 989.407 138.033 980.938C200.049 961.051 293.566 930.879 341.872 915.174C362.799 908.37 394.598 898.168 412.536 892.502C468.163 874.932 474.095 872.966 475.664 871.564C476.501 870.817 475.001 862.165 472.33 852.338C465.373 826.741 466.668 828.434 456.021 831.009ZM1862.06 899.966C1819.35 913.889 1730.01 942.811 1679.96 958.913C1664.51 963.883 1643.72 970.658 1633.76 973.969C1606.9 982.893 1501.08 1017.11 1476.56 1024.8C1464.84 1028.48 1454.96 1032 1454.62 1032.64C1454.14 1033.5 1465.65 1074 1466.88 1075.79C1467.1 1076.11 1475.35 1074.03 1575.78 1048.35C1700.46 1016.47 1723.53 1010.58 1781.43 995.816C1814.81 987.307 1857.41 976.477 1876.1 971.753L1910.07 963.16V935.777C1910.07 903.492 1908.55 886.064 1905.74 886.248C1904.63 886.321 1884.98 892.493 1862.06 899.966ZM475.952 909.095C469.973 911.467 445.92 920.664 422.501 929.536C399.082 938.406 360.353 953.129 336.436 962.25C312.519 971.374 276.643 985.011 256.712 992.555C236.782 1000.1 214.767 1008.47 207.791 1011.15C200.815 1013.84 184.916 1019.87 172.459 1024.56C160.002 1029.24 143.695 1035.44 136.221 1038.33C128.747 1041.22 114.071 1046.84 103.607 1050.82C28.4819 1079.39 11.9139 1085.88 10.468 1087.29C8.69048 1089.03 10.1998 1100.06 17.7844 1140.71C20.3881 1154.66 23.0879 1166.71 23.7854 1167.48C25.0646 1168.89 32.1292 1166.06 61.0182 1152.59C69.6917 1148.55 77.0517 1145.24 77.3742 1145.24C77.6967 1145.24 86.6475 1141.16 97.2652 1136.18C107.883 1131.19 116.901 1127.12 117.307 1127.12C117.713 1127.12 123.154 1124.62 129.397 1121.56C135.641 1118.51 163.988 1105.56 192.39 1092.78C220.792 1080 248.717 1067.41 254.448 1064.81C277.596 1054.29 287.044 1049.97 317.411 1036.07C334.851 1028.09 356.05 1018.5 364.521 1014.75C372.991 1011.01 384.406 1005.88 389.887 1003.36C395.368 1000.84 417.79 990.663 439.714 980.748C461.638 970.834 485.487 960.031 492.712 956.742C499.938 953.453 505.841 949.874 505.832 948.791C505.816 946.97 488.429 905.991 487.318 905.155C487.047 904.95 481.932 906.724 475.952 909.095ZM1819.48 1046.43C1774.13 1055.68 1702.38 1070.3 1660.03 1078.91C1617.68 1087.52 1559.55 1099.34 1530.86 1105.17C1502.18 1111 1478.24 1116.24 1477.67 1116.81C1477.1 1117.38 1478.15 1127.27 1480 1138.79L1483.37 1159.73L1488.8 1158.81C1493.55 1158.01 1529.37 1153.09 1719.82 1127.1C1741.25 1124.18 1788.44 1117.69 1824.69 1112.67C1860.94 1107.66 1892.46 1103.56 1894.74 1103.56C1899.25 1103.56 1900.3 1099.24 1904.46 1063.7C1908.35 1030.49 1908.37 1029.25 1905 1029.43C1903.31 1029.53 1864.82 1037.17 1819.48 1046.43ZM1843.03 1172.47C1823.6 1174.23 1786.91 1177.43 1761.5 1179.57C1736.08 1181.72 1707.55 1184.24 1698.08 1185.17C1683.64 1186.59 1612.75 1192.72 1531.38 1199.57C1505.81 1201.73 1488.94 1203.54 1488.19 1204.2C1487.85 1204.51 1488.16 1213.76 1488.87 1224.76L1490.17 1244.77L1515.76 1243.91C1541.21 1243.05 1607.42 1241.19 1738.85 1237.63C1872.7 1234.02 1869.73 1234.19 1870.76 1229.76C1871.26 1227.62 1875 1213.23 1879.07 1197.79C1883.14 1182.34 1886.48 1169.5 1886.49 1169.25C1886.53 1168.59 1882.28 1168.91 1843.03 1172.47ZM1487.07 1294.28C1486.68 1295.52 1485.83 1303.37 1485.17 1311.72C1484.52 1320.07 1483.58 1327.97 1483.07 1329.28C1481.97 1332.14 1485.58 1332.77 1518.7 1335.45C1532.15 1336.53 1552.13 1338.21 1563.09 1339.17C1574.05 1340.12 1602.18 1342.56 1625.6 1344.59C1649.02 1346.61 1676.74 1349.04 1687.21 1349.97C1697.67 1350.91 1716.42 1352.55 1728.88 1353.61C1741.34 1354.68 1759.68 1356.31 1769.65 1357.24C1779.61 1358.16 1795.11 1359.44 1804.08 1360.08L1820.38 1361.26L1832.67 1332.73C1839.43 1317.04 1844.65 1303.9 1844.29 1303.54C1843.61 1302.85 1788.01 1300.88 1672.71 1297.45C1637.33 1296.39 1584.74 1294.75 1555.84 1293.79C1488.46 1291.55 1487.93 1291.56 1487.07 1294.28ZM1472.64 1386.69C1468.47 1401.29 1464.34 1417.08 1464.34 1418.46C1464.34 1419.41 1467.4 1420.64 1471.14 1421.2C1474.88 1421.75 1509.73 1428.86 1548.6 1436.99C1587.46 1445.12 1634.75 1454.94 1653.69 1458.8C1672.62 1462.66 1701.78 1468.71 1718.48 1472.24C1735.19 1475.76 1750.27 1478.63 1752 1478.61C1753.85 1478.59 1757.49 1474.66 1760.82 1469.1C1763.93 1463.89 1770.66 1452.76 1775.77 1444.38C1780.88 1435.99 1784.83 1428.9 1784.54 1428.61C1784.25 1428.33 1764.07 1425.22 1739.69 1421.71C1715.31 1418.2 1678.24 1412.78 1657.31 1409.68C1636.38 1406.58 1613.96 1403.34 1607.48 1402.47C1601.01 1401.6 1590.41 1400.1 1583.93 1399.13C1540.42 1392.6 1481.33 1384.42 1477.67 1384.42C1475.26 1384.42 1473 1385.44 1472.64 1386.69ZM1441.43 1482.73C1439.3 1487.96 1435.68 1496.5 1433.39 1501.71C1431.1 1506.92 1429.68 1511.63 1430.22 1512.18C1430.77 1512.72 1449.88 1518.78 1472.69 1525.64C1495.51 1532.49 1536.19 1544.77 1563.09 1552.92C1660.25 1582.34 1672.83 1586.04 1673.42 1585.35C1686.59 1569.91 1705.33 1546.7 1705.33 1545.82C1705.33 1545.18 1692.08 1541.11 1675.88 1536.79C1659.69 1532.46 1634.21 1525.44 1619.26 1521.17C1604.31 1516.91 1565.18 1505.97 1532.29 1496.87C1499.4 1487.76 1467.07 1478.71 1460.44 1476.76C1453.81 1474.81 1447.69 1473.22 1446.85 1473.22C1446.01 1473.22 1443.57 1477.5 1441.43 1482.73ZM1384 1590.37C1378.33 1598.99 1373.91 1606.25 1374.18 1606.5C1374.44 1606.74 1389.33 1612.27 1407.27 1618.78C1472.85 1642.56 1572.23 1678.36 1574.96 1679.18C1577.56 1679.95 1613.97 1649.42 1612.36 1647.82C1612 1647.46 1584.46 1637.88 1551.16 1626.54C1517.86 1615.19 1470.19 1598.88 1445.22 1590.3C1420.25 1581.71 1398.58 1574.69 1397.06 1574.69C1395.54 1574.69 1389.66 1581.74 1384 1590.37ZM1317.13 1675.16C1311.4 1681.35 1306.72 1687.16 1306.73 1688.08C1306.75 1689 1321.63 1696.04 1339.8 1703.74C1376.58 1719.31 1404.48 1731.27 1412.7 1734.99C1415.69 1736.34 1429.82 1742.41 1444.09 1748.47C1466.31 1757.91 1470.61 1759.2 1473.99 1757.39C1477.5 1755.51 1482.82 1751.93 1501.26 1739.03L1506.47 1735.39L1502.11 1733.11C1499.71 1731.85 1483.1 1725.02 1465.19 1717.93C1447.29 1710.83 1431 1704.29 1429.01 1703.37C1414.78 1696.86 1331.29 1663.52 1329.63 1663.69C1328.48 1663.81 1322.86 1668.97 1317.13 1675.16ZM1238.31 1748.75C1232.08 1753.72 1227.01 1758.38 1227.03 1759.11C1227.06 1759.83 1233.78 1763.64 1241.98 1767.57C1250.18 1771.51 1279.06 1785.61 1306.18 1798.91L1355.47 1823.09L1372.85 1814.64C1382.4 1809.99 1389.93 1805.9 1389.58 1805.55C1388.52 1804.49 1251.63 1739.58 1250.6 1739.64C1250.07 1739.68 1244.54 1743.78 1238.31 1748.75ZM1147.26 1810.25C1142.78 1813.09 1138.09 1815.47 1136.84 1815.54C1135.6 1815.62 1134.58 1816.41 1134.58 1817.3C1134.58 1819.48 1224.04 1870.05 1227.89 1870.05C1232.77 1870.05 1257.79 1862.37 1257.79 1860.88C1257.79 1859.57 1249.87 1854.96 1219.74 1838.71C1212.26 1834.68 1195.32 1825.4 1182.08 1818.1C1168.84 1810.79 1157.43 1804.88 1156.71 1804.96C1156 1805.04 1151.75 1807.42 1147.26 1810.25ZM1047.86 1854.78C1035.8 1859.17 1032.79 1861.02 1035.83 1862.17C1036.83 1862.55 1050.69 1871 1066.63 1880.95C1082.58 1890.89 1097.5 1899.03 1099.8 1899.04C1106.48 1899.04 1129.14 1894.99 1129.13 1893.79C1129.12 1893.19 1126.88 1891.4 1124.15 1889.81C1121.41 1888.22 1106.13 1878.95 1090.19 1869.22C1074.24 1859.48 1060.79 1851.3 1060.29 1851.05C1059.79 1850.79 1054.2 1852.47 1047.86 1854.78ZM924.515 1882.98C919.1 1883.88 914.32 1884.96 913.896 1885.38C913.472 1885.81 921.43 1891.53 931.582 1898.09L950.038 1910.03L969.349 1909.52L988.659 1909.01L978.724 1902.83C973.259 1899.43 963.43 1893.11 956.88 1888.79C944.281 1880.47 942.06 1880.07 924.515 1882.98Z" fill="#00B5B5"/>
</g>
<defs>
<clipPath id="clip0_2477_649">
<rect width="1911" height="1911" fill="white"/>
</clipPath>
</defs>
</svg>
