<svg width="2751" height="1055" viewBox="0 0 2751 1055" fill="none" xmlns="http://www.w3.org/2000/svg">
<g clip-path="url(#clip0_2477_658)">
<path fill-rule="evenodd" clip-rule="evenodd" d="M510.642 1.588C511.742 2.427 515.792 4.904 519.642 7.093C523.492 9.283 530.054 13.263 534.225 15.939L541.808 20.805L549.894 19.65C554.342 19.014 558.198 18.271 558.464 17.997C558.73 17.724 552.441 13.563 544.489 8.75L530.03 0L519.336 0.0319977C509.542 0.0609977 508.81 0.191997 510.642 1.588ZM436.892 7.242C433.729 7.784 431.142 8.529 431.142 8.89799C431.142 9.26699 432.604 10.398 434.392 11.411C436.18 12.425 440.342 14.938 443.642 16.997C446.942 19.056 456.11 24.7 464.016 29.54L478.391 38.339L483.016 36.551C485.56 35.567 488.655 34.538 489.892 34.265C491.129 33.991 492.142 33.468 492.142 33.103C492.142 32.448 482.354 26.167 460.513 12.808C448.552 5.492 447.943 5.348 436.892 7.242ZM369.152 23.623C365.032 24.914 361 26.224 360.192 26.534C359.232 26.903 360.785 28.234 364.683 30.38C372.28 34.564 377.721 37.549 404.4 52.167L426.159 64.088L432.706 60.427C438.56 57.154 439.062 56.637 437.447 55.544C435.777 54.414 389.697 28.382 380.642 23.453L376.642 21.276L369.152 23.623ZM578.426 30.721C574.618 31.195 574.778 30.52 573.15 53C572.533 61.525 571.392 76.375 570.615 86C569.837 95.625 568.274 115.425 567.142 130C566.009 144.575 564.43 164.6 563.631 174.5C562.833 184.4 561.481 201.5 560.627 212.5C559.773 223.5 557.982 246.225 556.648 263C555.314 279.775 553.732 300.25 553.134 308.5C552.535 316.75 551.629 327.775 551.121 333C550.613 338.225 549.642 350.487 548.964 360.25L547.729 378H543.842H539.954L540.514 373.25C540.822 370.638 541.325 362.875 541.631 356C541.938 349.125 542.623 336.525 543.155 328C543.687 319.475 544.582 303.95 545.144 293.5C545.706 283.05 546.617 266.625 547.168 257C547.718 247.375 549.069 223.525 550.17 204C551.27 184.475 553.058 152.975 554.143 134C555.228 115.025 556.61 90.5 557.215 79.5C557.821 68.5 558.664 53.65 559.09 46.5C559.516 39.35 559.692 33.302 559.48 33.06C558.135 31.521 520.532 39.403 503.642 44.764L494.642 47.621L494.837 53.06C495.061 59.294 497.676 105.767 499.138 129.5C499.68 138.3 500.583 153.6 501.146 163.5C501.708 173.4 502.606 188.25 503.142 196.5C503.678 204.75 504.592 220.5 505.173 231.5C505.755 242.5 506.65 258.025 507.163 266C507.676 273.975 508.579 289.05 509.168 299.5C509.757 309.95 510.879 328.85 511.661 341.5C512.443 354.15 513.179 367.423 513.296 370.996L513.51 377.492L510.576 377.496C507.247 377.501 507.65 379.72 505.218 348C503.359 323.754 500.218 283.261 499.128 269.5C498.562 262.35 496.309 233.55 494.122 205.5C491.935 177.45 489.25 143.25 488.155 129.5C487.059 115.75 485.488 95.5 484.662 84.5C483.837 73.5 482.884 61.876 482.544 58.669C481.941 52.972 481.866 52.852 479.284 53.479C474.404 54.665 440.744 71.813 430.642 78.259C423.343 82.917 420.676 85.162 420.767 86.571C420.883 88.375 433.032 146.725 435.118 155.5C436.54 161.484 448.937 219.365 455.678 251.5C457.525 260.3 460.433 274.025 462.141 282C465.793 299.053 470.51 321.433 472.678 332C474.477 340.764 479.809 365.709 481.122 371.5C483.289 381.056 483.305 380.736 480.631 381.247C477.737 381.8 478.061 382.675 472.579 359.5C469.056 344.608 459.148 303.345 452.648 276.5C450.784 268.8 448.353 258.675 447.245 254C446.138 249.325 440.743 226.825 435.256 204C429.769 181.175 424.147 157.775 422.762 152C421.377 146.225 418.013 132.275 415.287 121C412.56 109.725 410.027 99.038 409.656 97.25C409.286 95.462 408.456 94.007 407.813 94.015C405.765 94.04 379.957 115.444 367.819 127.183L356.118 138.5L360.166 149C362.393 154.775 366.865 166.25 370.104 174.5C373.344 182.75 377.869 194.45 380.16 200.5C382.451 206.55 384.915 212.85 385.636 214.5C386.357 216.15 389.954 225.375 393.63 235C400.976 254.234 430.918 331.763 440.167 355.5C450.546 382.134 452.064 386.317 451.615 387.044C451.372 387.437 450.256 387.999 449.134 388.292C447.517 388.715 446.777 388.069 445.55 385.162C443.61 380.563 410.734 299.991 403.662 282.5C393.456 257.261 358.895 172.382 355.207 163.5C353.152 158.55 350.892 153.038 350.185 151.25C349.478 149.462 348.556 148 348.137 148C345.815 148 319.83 182.919 309.368 200.097L305.35 206.695L311.065 216.097C314.209 221.269 322.34 234.95 329.134 246.5C335.929 258.05 343.37 270.65 345.67 274.5C350.84 283.156 376.901 327.266 386.435 343.5C396.635 360.867 408.761 381.389 413.784 389.785C416.181 393.792 418.142 397.457 418.142 397.928C418.142 398.752 415.111 400.337 414.615 399.774C414.327 399.447 404.485 383.804 387.39 356.5C380.502 345.5 373.419 334.25 371.65 331.5C367.996 325.823 349.839 296.796 343.823 287.015C341.63 283.449 335.26 273.324 329.668 264.515C324.077 255.707 315.258 241.654 310.072 233.286C304.885 224.919 300.292 218.056 299.865 218.036C297.585 217.93 275.142 272.346 275.142 277.979C275.142 278.98 288.483 295.662 306.748 317.5C310.743 322.277 340.888 358.768 353.009 373.5C372.272 396.913 383.667 410.73 385.031 412.327C386.466 414.007 386.392 414.305 384.116 416.046C382.121 417.572 381.448 417.685 380.642 416.63C380.092 415.909 377.121 412.436 374.039 408.91C364.046 397.477 337.751 366.879 333.642 361.902C321.665 347.395 272.553 290.111 272.049 290.06C271.251 289.979 266.566 312.899 264.645 326.278C263.794 332.206 262.861 342.556 262.572 349.278L262.047 361.5L267.844 366.149C273.331 370.548 281.688 377.439 331.913 418.976C351.754 435.385 352.945 436.56 351.438 438.226C350.555 439.202 349.204 440 348.437 440C347.67 440 328.053 425.156 304.842 407.014C281.632 388.872 262.235 374.022 261.738 374.014C260.339 373.992 261.937 400.835 264.208 415.498C265.315 422.649 267.216 432.72 268.432 437.878L270.642 447.257L290.642 458.699C301.642 464.993 311.073 470.563 311.599 471.078C312.206 471.671 311.955 472.616 310.915 473.655C309.394 475.177 307.939 474.569 290.958 465.323L272.642 455.351L272.34 458.027C271.852 462.346 277.637 483.635 286.7 510.871C291.343 524.826 295.142 536.364 295.142 536.512C295.142 536.66 286.03 541.387 274.892 547.018C263.755 552.648 250.142 559.613 244.642 562.495C239.142 565.377 218.442 575.954 198.642 585.999C178.842 596.044 156.792 607.296 149.642 611.004C142.492 614.712 119.992 626.188 99.642 636.508C45.259 664.084 23.754 675.15 22.738 676.08C21.761 676.975 23.051 680.831 29.402 696C33.442 705.649 39.087 718.278 39.58 718.771C39.728 718.92 47.678 714.24 57.246 708.37C77.052 696.221 85.314 691.174 110.642 675.754C120.542 669.727 130.217 663.78 132.142 662.54C135.996 660.056 179.927 633.196 206.642 616.989C215.992 611.317 227.017 604.556 231.142 601.964C235.267 599.372 245.167 593.298 253.142 588.466C261.117 583.635 276.307 574.353 286.898 567.841C297.489 561.328 306.523 556 306.974 556C307.982 556 311.311 559.608 313.528 563.103L315.179 565.706L298.911 576.879C289.963 583.024 256.992 605.648 225.642 627.155C194.292 648.662 160.317 671.996 150.142 679.008C139.967 686.021 122.417 698.077 111.142 705.799C99.867 713.521 89.292 720.805 87.642 721.985C85.992 723.165 78.792 728.101 71.642 732.952C64.492 737.804 57.405 742.758 55.894 743.962L53.145 746.149L55.823 750.825C61.305 760.394 75.116 783.592 76.875 786.185L78.697 788.87L103.277 768.685C116.796 757.583 137.893 740.175 150.158 730C177.264 707.514 205.192 684.46 222.642 670.165C229.792 664.308 236.767 658.549 238.142 657.367C245.903 650.698 325.8 584.928 328.084 583.328C329.694 582.2 330.462 582.512 334.162 585.796L338.397 589.554L329.02 598.119C315.239 610.705 262.29 658.811 257.668 662.946C255.482 664.901 250.982 668.994 247.668 672.042C244.354 675.09 238.942 680.005 235.642 682.963C232.342 685.922 215.242 701.436 197.642 717.44C180.042 733.444 160.467 751.221 154.142 756.945C116.96 790.59 99.304 806.624 96.728 809.084L93.814 811.867L101.626 822.683C113.202 838.712 124.495 852.898 125.723 852.952C126.317 852.979 135.808 843.213 146.813 831.25C157.818 819.288 173.031 802.75 180.62 794.5C188.21 786.25 196.949 776.8 200.041 773.5C203.133 770.2 210.404 762.325 216.2 756C221.996 749.675 235.053 735.5 245.216 724.5C255.379 713.5 269.059 698.65 275.618 691.5C282.176 684.35 292.964 672.655 299.592 665.511C306.219 658.367 314.117 649.818 317.142 646.512C320.167 643.206 322.879 640.277 323.168 640.001C323.457 639.725 330.823 631.737 339.535 622.25C348.248 612.763 355.886 605.012 356.509 605.027C357.132 605.042 359.074 606.279 360.825 607.777L364.008 610.5L356.325 619.587C352.099 624.585 342.394 636.06 334.757 645.087C327.12 654.114 319.189 663.525 317.133 666C315.076 668.475 307.897 677.025 301.179 685C294.462 692.975 284.843 704.413 279.804 710.418C274.765 716.423 265.857 726.998 260.008 733.918C254.16 740.838 234.451 764.275 216.212 786C180.573 828.448 163.174 849.079 150.902 863.441C146.644 868.424 143.157 873.087 143.152 873.805C143.139 875.585 180.186 912.755 180.722 911.5C180.957 910.95 184.217 906.225 187.965 901C191.713 895.775 200.8 882.95 208.158 872.5C215.516 862.05 227.101 845.625 233.903 836C240.705 826.375 254.903 806.234 265.456 791.241C276.008 776.249 286.892 760.84 289.642 756.999C292.392 753.158 302.742 738.542 312.642 724.52C322.542 710.498 335.669 691.932 341.814 683.262C347.958 674.593 355.193 664.35 357.891 660.5C360.59 656.65 367.625 646.667 373.524 638.316L384.25 623.131L387.696 625.164C389.591 626.283 391.142 627.604 391.142 628.101C391.142 628.936 382.039 643.237 350.151 692.5C343.387 702.95 334.255 717.125 329.859 724C325.463 730.875 319.499 740.1 316.607 744.5C313.715 748.9 296.405 775.675 278.141 804C259.876 832.325 241.492 860.792 237.287 867.261C210.327 908.733 198.43 927.595 198.817 928.25C200.819 931.638 244.374 961.241 245.454 959.947C246.039 959.246 254.673 942.838 269.63 914C277.19 899.425 285.068 884.35 287.138 880.5C289.207 876.65 299.451 857.075 309.901 837C328.055 802.128 344.675 770.281 357.129 746.5C360.297 740.45 368.4 724.925 375.136 712C381.871 699.075 389.294 684.9 391.631 680.5C393.967 676.1 399.591 665.3 404.128 656.5C408.665 647.7 412.68 640.166 413.051 639.758C413.785 638.951 420.142 641.033 420.142 642.08C420.142 642.711 415.031 653.791 405.648 673.5C403.03 679 398.98 687.55 396.647 692.5C394.315 697.45 390.146 706.225 387.383 712C380.468 726.451 363.605 761.995 359.629 770.5C357.83 774.35 352.484 785.548 347.749 795.385C343.015 805.221 339.142 813.385 339.142 813.526C339.142 813.667 335.823 820.694 331.767 829.142C327.711 837.589 317.758 858.45 309.651 875.5C301.543 892.55 292.871 910.775 290.38 916C264.512 970.258 264.089 971.237 265.906 972.636C270.76 976.37 316.892 997.934 317.572 996.787C317.665 996.629 319.146 992.675 320.861 988C322.577 983.325 326.221 973.425 328.96 966C331.698 958.575 342.564 928.65 353.106 899.5C363.649 870.35 372.963 844.7 373.804 842.5C374.646 840.3 381.642 821.175 389.352 800C397.062 778.825 404.71 757.9 406.347 753.5C407.985 749.1 410.598 741.9 412.153 737.5C416.667 724.731 422.439 708.825 429.389 690C432.942 680.375 437.598 667.628 439.736 661.673L443.623 650.846L446.601 651.442C448.239 651.769 449.869 652.367 450.224 652.769C450.578 653.171 447.618 663.4 443.646 675.5C430.731 714.845 400.018 808.241 396.622 818.5C394.801 824 388.133 844.25 381.804 863.5C346.87 969.748 336.142 1002.67 336.142 1003.62C336.142 1004.2 338.504 1005.37 341.392 1006.22C344.279 1007.06 351.162 1009.14 356.686 1010.83C368.357 1014.39 391.224 1020 394.094 1020C396.492 1020 395.794 1022.58 406.121 975.5C410.584 955.15 415.795 931.525 417.702 923C419.608 914.475 421.799 904.575 422.569 901C423.339 897.425 424.881 890.45 425.995 885.5C427.109 880.55 430.052 867.275 432.537 856C442.455 810.984 466.491 702.241 470.995 682L475.78 660.5L478.961 660.187C480.711 660.014 482.142 660.257 482.142 660.727C482.142 661.196 480.544 669.662 478.59 679.54C476.637 689.418 474.189 702 473.15 707.5C466.717 741.553 453.785 808.989 452.151 817C450.355 825.809 441.087 874.006 435.614 903C427.756 944.631 414.207 1014.94 413.2 1019.32C412.164 1023.82 411.52 1023.48 424.142 1024.95C445.086 1027.38 475.547 1028.67 477.818 1027.22C478.595 1026.73 480.033 1013.24 482.054 987.487C483.737 966.044 486.472 931.175 488.131 910C489.791 888.825 491.605 865.875 492.162 859C493.016 848.475 498.422 779.642 502.098 732.5C502.655 725.35 504.011 708.475 505.11 695C506.21 681.525 507.117 669.038 507.126 667.25C507.141 664.205 507.363 664 510.642 664C514.095 664 514.142 664.057 514.126 668.25C514.118 670.587 513.441 683.75 512.622 697.5C511.804 711.25 510.684 730.825 510.133 741C509.583 751.175 508.687 767.15 508.142 776.5C507.597 785.85 506.698 802.05 506.143 812.5C505.588 822.95 504.683 839.112 504.132 848.416C503.581 857.72 502.691 873.92 502.156 884.416C501.62 894.912 500.936 906.875 500.636 911C498.92 934.581 494.182 1025.37 494.644 1025.83C496.329 1027.52 533.168 1021.6 551.142 1016.76L559.642 1014.46L559.431 1005.48C559.241 997.354 558.06 975.882 553.657 900.5C552.854 886.75 551.733 868.3 551.167 859.5C550.601 850.7 549.688 835.175 549.139 825C548.142 806.538 545.96 769.357 542.154 706C539.482 661.515 539.423 664 543.142 664C546.114 664 546.142 664.051 546.142 669.539C546.142 672.586 546.585 679.224 547.127 684.289C547.669 689.355 548.777 702.5 549.59 713.5C551.532 739.791 555.828 794.867 557.702 817.5C558.522 827.4 559.618 841.575 560.139 849C560.659 856.425 561.763 870.825 562.591 881C563.42 891.175 564.572 905.575 565.151 913C565.73 920.425 566.622 931.675 567.133 938C567.644 944.325 569.052 962.775 570.263 979C571.474 995.225 572.774 1008.86 573.151 1009.3C574.346 1010.69 592.955 1003.19 612.642 993.396C623.092 988.196 632.71 983.123 634.015 982.124L636.387 980.306L630.78 953.903C627.696 939.381 624.311 923.45 623.259 918.5C622.207 913.55 617.004 889.025 611.696 864C606.389 838.975 600.899 813.325 599.496 807C598.093 800.675 595.679 789.425 594.13 782C585.318 739.749 569.136 664.148 568.611 662.78C568.198 661.703 568.699 660.958 570.145 660.499C571.326 660.124 572.522 660.046 572.802 660.326C573.248 660.773 579.734 686.909 589.097 726C590.744 732.875 594.152 747.05 596.672 757.5C601.702 778.364 605.155 792.715 610.626 815.5C612.608 823.75 615.316 835 616.645 840.5C620.082 854.723 625.517 877.338 629.142 892.5C630.851 899.65 633.772 911.8 635.633 919.5C637.494 927.2 640.624 940.25 642.588 948.5C644.553 956.75 646.681 965.599 647.318 968.164L648.476 972.827L651.059 971.202C661.121 964.87 684.497 946.235 695.378 935.869L703.115 928.5L700.001 920.5C698.288 916.1 693.985 905.075 690.439 896C686.893 886.925 682.259 875 680.14 869.5C678.021 864 674.642 855.225 672.63 850C670.618 844.775 667.922 837.8 666.638 834.5C656.345 808.034 648.6 788.071 638.124 761C631.419 743.675 619.742 713.525 612.175 694C595.354 650.599 596.547 654.324 599.201 653.481C600.379 653.107 601.713 653.184 602.164 653.651C602.616 654.118 605.894 661.7 609.45 670.5C613.006 679.3 620.867 698.65 626.918 713.5C632.969 728.35 641.389 749.05 645.629 759.5C649.87 769.95 656.403 785.925 660.148 795C663.892 804.075 671.226 822.075 676.444 835C700.565 894.744 710.339 918.559 711.027 919.266C712.909 921.197 737.133 891.927 752.002 869.755L757.196 862.011L742.039 836.255C733.702 822.09 723.409 804.65 719.165 797.5C694.5 755.948 690.564 749.288 689.447 747.208C688.77 745.947 683.984 737.847 678.811 729.208C673.637 720.568 662.524 701.8 654.113 687.5C645.703 673.2 636.442 657.482 633.534 652.571C630.625 647.66 628.474 643.273 628.753 642.821C630.188 640.499 632.65 643.129 639.925 654.75C644.315 661.763 653.872 676.95 661.162 688.5C668.452 700.05 680.037 718.5 686.905 729.5C693.773 740.5 701.953 753.55 705.082 758.5C715.802 775.456 725.907 791.518 740.623 815C748.724 827.925 757.167 841.328 759.386 844.784L763.422 851.069L765.444 847.784C769.728 840.828 782.164 813.937 786.57 802.103C790.536 791.45 790.994 789.48 789.825 788.103C787.627 785.514 756.968 748.174 753.142 743.426C751.217 741.038 743.762 731.977 736.575 723.292C661.309 632.334 658.096 628.379 658.856 627.619C659.197 627.279 659.843 627 660.292 627C660.974 627 687.499 656.943 716.631 690.599C774.193 757.099 793.222 778.32 794.311 777.231C798.199 773.343 809.264 707.552 806.461 704.99C804.121 702.85 714.81 624.986 704.397 616.007C697.528 610.084 692.606 605.136 693.095 604.647C693.585 604.157 701.123 609.38 710.403 616.64C719.446 623.713 736.024 636.671 747.243 645.436C758.463 654.2 775.967 667.885 786.142 675.845C796.317 683.806 805.274 690.81 806.046 691.409C807.246 692.341 807.362 689.726 806.847 673.5C806.249 654.688 804.52 638.477 801.635 624.65C800.815 620.717 800.143 617.226 800.143 616.891C800.142 616.556 795.53 613.677 789.892 610.493C784.254 607.309 776.492 602.821 772.642 600.518C768.792 598.216 763.167 594.974 760.142 593.314C750.831 588.205 727.687 574.807 726.85 574.04C726.414 573.641 726.699 572.782 727.484 572.131C729.096 570.793 730.285 571.31 769.243 590.279C782.224 596.599 793.785 602.069 794.936 602.435C796.986 603.085 796.969 602.881 794.116 592.299C786.431 563.797 773.811 534.165 761.995 516.882C758.352 511.552 761.995 516.882 755.642 507.5C752.642 504 752.642 504 752.642 504C748.772 501 749.019 501 748.772 501C748.525 501 746.415 504.487 744.084 508.75C728.071 538.025 697.534 570.432 666.142 591.463C632.441 614.041 594.427 628.53 554.142 634.151C539.963 636.13 505.369 635.856 491.142 633.653C465.504 629.682 443.897 622.952 421.546 611.977C396.722 599.787 375.675 584.384 354.354 562.801C340.163 548.436 332.431 539.243 320.653 522.73L312.102 510.741L314.817 507.12C327.718 489.915 351.174 465.698 368.142 452.062C428.309 403.714 500.129 385.008 575.642 398.018C586.273 399.849 591.055 401.164 614.642 408.742C655.647 421.916 693.503 444.703 723.47 474.25C738.03 488.607 740.777 490.218 743.384 485.929C744.076 484.79 765.117 469.864 790.142 452.759C815.167 435.653 840.592 418.217 846.642 414.011C852.692 409.805 866.417 400.407 877.142 393.125C887.867 385.843 905.417 373.869 916.142 366.516C926.867 359.163 940.817 349.63 947.142 345.332C953.467 341.034 967.417 331.463 978.142 324.063C988.867 316.663 999.33 309.492 1001.39 308.127C1003.45 306.762 1005.14 305.268 1005.14 304.807C1005.14 303.534 993.634 280.762 987.413 269.726C982.574 261.141 981.706 260.107 980.273 261.221C977.979 263.005 963.15 275.117 953.642 282.974C938.343 295.615 917.512 312.856 896.071 330.624C884.206 340.456 872.519 350.075 870.098 352C867.678 353.925 862.535 358.217 858.67 361.539C854.805 364.86 847.817 370.669 843.142 374.447C838.467 378.225 832.392 383.193 829.642 385.488C824.413 389.85 778.987 427.341 752.384 449.25C743.869 456.263 736.598 462 736.225 462C735.391 462 728.142 454.651 728.142 453.805C728.142 453.47 752.33 431.222 781.892 404.366C811.455 377.511 865.004 328.857 900.892 296.247C936.78 263.637 966.142 236.491 966.142 235.923C966.142 233.949 948.192 208.851 939.221 198.283C935.148 193.483 933.874 193.117 931.757 196.139C930.934 197.315 927.851 200.802 924.908 203.889C921.965 206.975 914.187 215.35 907.623 222.5C901.06 229.65 893.388 237.975 890.575 241C887.762 244.025 879.467 253.025 872.142 261C858.086 276.302 856.014 278.547 836.142 299.986C829.267 307.403 823.192 313.968 822.642 314.575C822.092 315.181 817.105 320.588 811.561 326.589C793.047 346.626 738.825 405.401 723.75 421.771C715.227 431.028 708.385 437.665 707.75 437.292C707.141 436.935 705.186 435.549 703.407 434.214L700.173 431.786L702.907 428.524C704.411 426.729 712.392 417.239 720.642 407.434C728.892 397.629 740.592 383.71 746.642 376.502C752.692 369.295 772.942 345.231 791.642 323.028C810.342 300.824 833.051 273.847 842.107 263.079C865.535 235.221 895.759 199.338 906.477 186.658C911.518 180.696 915.952 175.272 916.331 174.607C917.337 172.839 910.85 165.698 893.833 149.843C881.589 138.435 878.609 136.114 877.579 137.187C876.886 137.909 860.464 161 841.087 188.5C790.956 259.644 778.863 276.764 747.137 321.5C741.286 329.75 723.556 354.845 707.735 377.266L678.971 418.032L675.027 415.815C672.443 414.363 671.274 413.099 671.637 412.153C672.177 410.746 687.138 387.377 707.587 356C713.142 347.475 721.422 334.65 725.985 327.5C730.548 320.35 737.929 308.875 742.386 302C746.844 295.125 755.925 281.08 762.567 270.789C776.496 249.206 788.202 231.094 829.002 168C845.184 142.975 858.473 122.007 858.533 121.404C858.723 119.489 841.792 107.608 820.446 94.678L811.25 89.108L799.31 111.804C792.742 124.287 783.661 141.7 779.129 150.5C774.596 159.3 769.429 169.2 767.645 172.5C765.861 175.8 761.126 184.8 757.121 192.5C750.635 204.971 744.85 216.016 724.123 255.5C720.947 261.55 713.193 276.4 706.892 288.5C700.591 300.6 692.489 316.125 688.886 323C665.036 368.52 650.138 397.275 650.11 397.842C650.093 398.204 649.451 399.329 648.683 400.341C647.435 401.988 646.911 402.046 643.715 400.89C641.75 400.18 640.142 399.265 640.142 398.857C640.142 398.143 650.676 375.711 666.538 342.65C670.72 333.932 674.142 326.68 674.142 326.535C674.142 326.39 678.39 317.465 683.582 306.703C688.774 295.94 694.122 284.742 695.466 281.817C696.811 278.893 704.995 261.65 713.654 243.5C722.312 225.35 731.08 206.9 733.139 202.5C735.197 198.1 743.526 180.55 751.646 163.5C759.767 146.45 768.321 128.45 770.656 123.5C772.99 118.55 777.145 109.775 779.888 104C789.062 84.687 791.142 80.09 791.142 79.127C791.142 77.038 738.923 53.885 737.476 55.333C737.268 55.54 733.702 65.113 729.551 76.605C725.4 88.097 720.713 100.875 719.136 105C717.559 109.125 711.259 126.45 705.135 143.5C699.012 160.55 693.16 176.75 692.131 179.5C684.527 199.817 676.755 220.91 676.102 223C675.672 224.375 673.989 229.1 672.361 233.5C670.733 237.9 660.973 264.675 650.673 293C640.373 321.325 629.963 349.9 627.54 356.5C625.117 363.1 621.406 373.225 619.292 379C617.026 385.192 614.841 389.619 613.967 389.79C613.151 389.95 611.311 389.635 609.877 389.089L607.27 388.098L610.602 378.299C612.435 372.91 622.12 343.525 632.125 313C642.13 282.475 653.93 246.475 658.347 233C662.764 219.525 672.666 189.375 680.351 166C688.036 142.625 699.268 108.425 705.31 90C711.352 71.575 716.937 54.802 717.72 52.726C719.095 49.084 719.063 48.92 716.808 48.063C707.903 44.677 670.823 35.914 660.752 34.815L657.862 34.5L655.485 45C654.178 50.775 652.242 59.55 651.183 64.5C650.124 69.45 644.258 96 638.147 123.5C632.036 151 626.217 177.325 625.216 182C624.214 186.675 620.6 203.1 617.182 218.5C590.864 337.11 581.142 381.081 581.142 381.507C581.142 382.174 577.651 382.133 575.857 381.444C574.719 381.007 574.586 379.989 575.237 376.694C577.513 365.18 584.307 329.873 586.628 317.5C588.072 309.8 591.05 294.275 593.246 283C596.709 265.217 605.69 218.385 608.204 205C608.669 202.525 610.444 193.3 612.148 184.5C615.09 169.31 616.609 161.365 621.085 137.75C622.154 132.113 624.867 118.05 627.115 106.5C629.363 94.95 632.056 81 633.098 75.5C634.141 70 636.416 58.151 638.154 49.17C639.893 40.188 641.144 32.669 640.935 32.46C639.161 30.686 589.74 29.311 578.426 30.721ZM296.74 52.556C291.845 54.984 287.62 57.189 287.352 57.457C287.084 57.725 287.94 58.353 289.253 58.854C290.567 59.354 296.367 62.028 302.142 64.795C327.826 77.103 375.471 98.997 376.504 98.966C377.13 98.948 380.548 96.613 384.1 93.777L390.557 88.622L378.6 82.839C372.023 79.658 358.767 73.241 349.142 68.578C310.896 50.049 306.624 48.012 306.142 48.076C305.867 48.113 301.636 50.129 296.74 52.556ZM233.046 89.25C228.012 92.688 223.837 95.88 223.768 96.344C223.699 96.808 227.242 98.661 231.642 100.461C236.042 102.261 247.517 106.998 257.142 110.986C266.767 114.975 278.467 119.771 283.142 121.643C287.817 123.516 292.542 125.465 293.642 125.974C300.527 129.161 332.246 142 333.233 142C333.62 142 336.721 138.858 340.126 135.018C346.209 128.157 346.276 128.019 343.979 127.036C342.694 126.486 324.992 118.775 304.642 109.901C252.613 87.211 242.888 83 242.521 83C242.344 83 238.08 85.813 233.046 89.25ZM174.323 135.108C169.245 139.637 165.243 143.803 165.431 144.367C165.619 144.931 173.393 147.967 182.707 151.115C192.021 154.262 216.967 162.749 238.142 169.975C259.317 177.2 281.463 184.754 287.355 186.76C293.246 188.767 298.245 190.204 298.462 189.954C301.22 186.786 309.924 172.405 309.376 171.924C308.972 171.57 298.742 167.789 286.642 163.521C274.542 159.253 247.092 149.47 225.642 141.782C204.192 134.093 185.948 127.594 185.1 127.339C184.167 127.059 179.91 130.128 174.323 135.108ZM126.642 183.73C120.124 191.329 113.141 200.209 113.156 200.877C113.164 201.22 130.152 206.173 150.906 211.885C171.661 217.596 196.292 224.399 205.642 227.003C214.992 229.606 229.617 233.635 238.142 235.955C246.667 238.276 257.393 241.312 261.977 242.702C266.561 244.093 270.642 244.841 271.046 244.365C272.412 242.757 280.451 223.975 279.976 223.501C279.577 223.101 265.771 218.849 255.642 216.007C250.615 214.596 231.558 208.882 187.142 195.47C178.617 192.896 170.742 190.555 169.642 190.268C168.542 189.981 159.581 187.328 149.729 184.373C139.877 181.418 131.552 179.015 131.229 179.033C130.906 179.051 128.842 181.164 126.642 183.73ZM84.009 240.756C83.111 242.265 79.394 248.408 75.75 254.408C72.105 260.407 69.24 265.425 69.383 265.559C69.628 265.79 95.356 269.72 125.142 274.076C132.567 275.161 144.492 276.928 151.642 278.001C158.792 279.075 180.167 282.209 199.142 284.966C218.117 287.723 237.937 290.659 243.186 291.489C256.333 293.57 255.883 293.658 257.214 288.75C257.848 286.413 258.729 283.375 259.173 282C261.7 274.165 261.77 274.303 254.391 272.629C248.003 271.181 182.636 257.457 167.642 254.417C163.792 253.636 156.592 252.149 151.642 251.113C146.692 250.077 135.667 247.795 127.142 246.041C118.617 244.288 106.543 241.762 100.312 240.427C86.216 237.408 86 237.412 84.009 240.756ZM42.804 318.513C39.043 327.117 36.138 334.329 36.348 334.54C36.745 334.936 70.266 336.265 123.142 337.98C139.917 338.525 174.704 339.702 200.446 340.597C226.189 341.493 247.542 341.933 247.899 341.576C248.466 341.01 251.271 320.659 250.816 320.424C250.72 320.375 233.992 318.883 213.642 317.109C193.292 315.334 166.967 313.023 155.142 311.973C94.993 306.63 65.835 304.085 58.142 303.507L49.642 302.868L42.804 318.513ZM1001.64 342.7C987.023 351.716 878.286 418.295 831.642 446.789C803.851 463.766 760.781 490.149 760.463 490.389C760.364 490.464 762.959 494.053 766.228 498.365C769.497 502.677 772.817 507.125 773.604 508.25C775.005 510.25 775.483 510.069 795.339 500.012C806.506 494.356 816.092 489.405 816.642 489.01C817.192 488.615 830.242 481.862 845.642 474.004C861.042 466.146 876.792 458.041 880.642 455.991C884.492 453.941 900.242 445.846 915.642 438C931.042 430.155 945.892 422.503 948.642 420.995C951.392 419.487 966.172 411.851 981.487 404.025C996.801 396.2 1014.63 387.025 1021.11 383.636L1032.89 377.474L1028.02 363.487C1025.34 355.794 1021.99 346.012 1020.57 341.75C1019.14 337.488 1017.45 334.015 1016.81 334.033C1016.17 334.051 1009.34 337.951 1001.64 342.7ZM228.142 367.653C222.917 367.783 201.317 368.371 180.142 368.959C158.967 369.547 124.317 370.465 103.142 371C81.967 371.534 55.156 372.25 43.563 372.591L22.483 373.21L19.315 384.355C16.09 395.701 13.051 408.243 13.435 408.626C13.551 408.742 18.82 408.424 25.144 407.919C55.511 405.494 88.231 402.742 119.142 400.013C131.517 398.921 158.742 396.646 179.642 394.959C229.672 390.919 247.141 389.334 247.691 388.784C247.94 388.536 247.85 383.532 247.491 377.666L246.838 367L242.24 367.208C239.711 367.322 233.367 367.522 228.142 367.653ZM1024.64 416.019C1007.54 423.872 1003.19 425.853 979.642 436.515C970.292 440.749 959.492 445.688 955.642 447.492C951.792 449.295 941.892 453.806 933.642 457.518C925.392 461.229 915.717 465.605 912.142 467.242C908.567 468.879 901.142 472.238 895.642 474.706C884.805 479.57 878.168 482.583 871.142 485.827C868.667 486.97 848.204 496.277 825.669 506.509C803.135 516.74 784.543 525.266 784.354 525.455C784.165 525.643 785.316 528.431 786.91 531.649C788.504 534.867 790.854 540.2 792.131 543.5C793.409 546.8 794.745 549.838 795.1 550.252C795.455 550.665 800.447 549.167 806.194 546.923C811.94 544.678 831.492 537.217 849.642 530.341C867.792 523.466 888.267 515.667 895.142 513.01C902.017 510.353 922.042 502.716 939.642 496.039C971.046 484.125 975.985 482.242 997.142 474.117C1002.92 471.899 1016.64 466.659 1027.64 462.473C1038.64 458.287 1048.02 454.495 1048.48 454.045C1049.45 453.095 1048.02 442.665 1044.5 425C1041.57 410.279 1041.22 408.979 1040.32 409.066C1039.95 409.102 1032.89 412.231 1024.64 416.019ZM231.642 414.605C213.588 417.235 183.961 421.326 145.642 426.481C131.342 428.404 113.342 430.863 105.642 431.945C97.942 433.027 84.892 434.827 76.642 435.945C68.392 437.062 52.192 439.297 40.642 440.91C29.092 442.523 17.032 444.158 13.842 444.543C10.652 444.928 7.46599 445.819 6.76199 446.523C6.02399 447.261 4.76101 454.093 3.78101 462.652C2.84501 470.818 1.832 479.477 1.528 481.894L0.975998 486.289L4.30901 485.709C6.14201 485.39 43.417 477.885 87.142 469.031C130.867 460.177 170.242 452.253 174.642 451.422C179.042 450.591 184.217 449.528 186.142 449.059C188.067 448.591 203.817 445.383 221.142 441.932C238.467 438.481 252.793 435.546 252.978 435.409C253.751 434.839 249.556 412.638 248.642 412.465C248.092 412.36 240.442 413.324 231.642 414.605ZM251.642 458.588C248.892 459.252 232.242 463.465 214.642 467.949C197.042 472.434 165.767 480.384 145.142 485.616C65.974 505.7 44.01 511.3 25.142 516.21C14.417 519.002 4.373 521.502 2.821 521.767L0 522.248L0.320999 543.043C0.497999 554.48 0.937004 564.132 1.298 564.491C1.658 564.851 12.683 561.698 25.798 557.486C38.912 553.274 61.567 546.003 76.142 541.329C110.369 530.354 161.982 513.703 188.642 505.036C200.192 501.281 217.742 495.651 227.642 492.524C258.343 482.828 261.617 481.743 262.483 480.969C262.945 480.557 262.117 475.782 260.643 470.359C256.803 456.233 257.518 457.167 251.642 458.588ZM1027.64 496.643C1004.07 504.327 954.763 520.288 927.142 529.174C918.617 531.917 907.142 535.656 901.642 537.483C886.819 542.408 828.418 561.291 814.882 565.536C808.414 567.564 802.965 569.511 802.773 569.862C802.513 570.339 808.863 592.685 809.54 593.676C809.661 593.853 814.216 592.705 869.642 578.533C938.456 560.937 951.188 557.685 983.142 549.54C1001.57 544.844 1025.08 538.867 1035.39 536.26L1054.14 531.518V516.406C1054.14 498.589 1053.3 488.971 1051.75 489.073C1051.14 489.113 1040.29 492.519 1027.64 496.643ZM262.642 501.681C259.342 502.99 246.067 508.066 233.142 512.962C220.217 517.857 198.842 525.982 185.642 531.016C172.442 536.051 152.642 543.577 141.642 547.74C130.642 551.904 118.492 556.523 114.642 558.004C110.792 559.485 102.017 562.814 95.142 565.4C88.267 567.986 79.267 571.406 75.142 573.001C71.017 574.595 62.917 577.696 57.142 579.892C15.68 595.661 6.53599 599.242 5.73799 600.023C4.75699 600.984 5.59 607.069 9.776 629.5C11.213 637.2 12.703 643.848 13.088 644.273C13.794 645.053 17.693 643.494 33.637 636.059C38.424 633.826 42.486 632 42.664 632C42.842 632 47.782 629.75 53.642 627C59.502 624.25 64.479 622 64.703 622C64.927 622 67.93 620.621 71.376 618.936C74.822 617.251 90.467 610.102 106.142 603.049C121.817 595.997 137.229 589.051 140.392 587.613C153.168 581.807 158.382 579.428 175.142 571.757C184.767 567.351 196.467 562.056 201.142 559.989C205.817 557.922 212.117 555.093 215.142 553.701C218.167 552.31 230.542 546.696 242.642 541.224C254.742 535.753 267.904 529.791 271.892 527.976C275.88 526.161 279.138 524.186 279.133 523.588C279.124 522.583 269.528 499.968 268.915 499.507C268.765 499.394 265.942 500.373 262.642 501.681ZM1004.14 577.471C979.117 582.578 939.517 590.645 916.142 595.396C892.767 600.148 860.688 606.669 844.855 609.888C829.022 613.107 815.811 615.998 815.497 616.312C815.182 616.626 815.761 622.084 816.783 628.44L818.641 639.997L821.641 639.49C824.261 639.047 844.031 636.334 949.142 621.993C960.967 620.38 987.012 616.797 1007.02 614.03C1027.03 611.264 1044.42 609 1045.68 609C1048.17 609 1048.75 606.618 1051.04 587C1053.19 568.674 1053.2 567.992 1051.34 568.092C1050.41 568.143 1029.17 572.363 1004.14 577.471ZM1017.14 647.029C1006.42 648.003 986.167 649.767 972.142 650.95C958.117 652.134 942.367 653.523 937.142 654.038C929.173 654.824 890.051 658.204 845.142 661.987C831.028 663.176 821.715 664.174 821.303 664.542C821.116 664.709 821.285 669.814 821.679 675.888L822.395 686.93L836.518 686.453C850.567 685.979 887.107 684.951 959.642 682.991C1033.52 680.995 1031.88 681.093 1032.45 678.647C1032.72 677.466 1034.78 669.525 1037.03 661C1039.28 652.475 1041.12 645.388 1041.13 645.25C1041.15 644.889 1038.8 645.063 1017.14 647.029ZM820.686 714.25C820.469 714.938 819.998 719.269 819.637 723.876C819.277 728.483 818.756 732.843 818.479 733.565C817.871 735.148 819.865 735.493 838.142 736.97C845.567 737.57 856.592 738.494 862.642 739.023C868.692 739.552 884.217 740.899 897.142 742.017C910.067 743.134 925.367 744.47 931.142 744.986C936.917 745.502 947.267 746.407 954.142 746.997C961.017 747.587 971.142 748.486 976.642 748.995C982.142 749.504 990.692 750.211 995.642 750.567L1004.64 751.214L1011.42 735.471C1015.15 726.812 1018.04 719.562 1017.83 719.36C1017.46 718.984 986.777 717.896 923.142 716C903.617 715.418 874.592 714.509 858.642 713.981C821.452 712.747 821.158 712.749 820.686 714.25ZM812.722 765.25C810.418 773.309 808.142 782.02 808.142 782.782C808.142 783.307 809.83 783.987 811.892 784.293C813.955 784.598 833.192 788.521 854.642 793.009C876.092 797.497 902.192 802.914 912.642 805.046C923.092 807.178 939.184 810.514 948.403 812.461C957.622 814.407 965.947 815.991 966.903 815.98C967.924 815.969 969.933 813.8 971.767 810.73C973.486 807.854 977.199 801.714 980.02 797.086C982.84 792.458 985.018 788.543 984.861 788.386C984.703 788.228 973.565 786.513 960.108 784.575C946.652 782.637 926.192 779.651 914.642 777.939C903.092 776.227 890.717 774.436 887.142 773.958C883.567 773.481 877.717 772.651 874.142 772.115C850.127 768.512 817.518 764 815.494 764C814.166 764 812.918 764.563 812.722 765.25ZM795.498 818.252C794.318 821.138 792.321 825.852 791.059 828.728C789.797 831.603 789.01 834.201 789.311 834.502C789.612 834.803 800.159 838.146 812.75 841.93C825.341 845.715 847.792 852.491 862.642 856.987C916.265 873.225 923.209 875.266 923.533 874.886C930.803 866.361 941.142 853.553 941.142 853.07C941.142 852.713 933.83 850.469 924.892 848.083C915.955 845.697 901.892 841.82 893.642 839.467C885.392 837.115 863.792 831.078 845.642 826.053C827.492 821.028 809.647 816.035 805.987 814.958C802.326 813.881 798.951 813.001 798.487 813.002C798.022 813.003 796.677 815.366 795.498 818.252ZM763.799 877.652C760.672 882.411 758.232 886.417 758.378 886.554C758.523 886.691 766.742 889.741 776.642 893.332C812.835 906.458 867.683 926.212 869.194 926.665C870.625 927.093 890.719 910.243 889.833 909.358C889.636 909.16 874.437 903.875 856.058 897.614C837.679 891.352 811.368 882.352 797.589 877.614C783.809 872.876 771.849 869 771.01 869C770.171 869 766.926 872.894 763.799 877.652ZM726.892 924.445C723.729 927.862 721.148 931.071 721.156 931.578C721.163 932.085 729.376 935.973 739.406 940.219C759.702 948.81 775.102 955.41 779.642 957.465C781.292 958.211 789.088 961.56 796.966 964.907C809.228 970.116 811.602 970.824 813.466 969.827C815.401 968.792 818.339 966.814 828.517 959.697L831.391 957.686L828.985 956.426C827.661 955.732 818.493 951.963 808.61 948.049C798.728 944.135 789.742 940.521 788.642 940.017C780.79 936.422 734.71 918.023 733.791 918.117C733.159 918.182 730.055 921.029 726.892 924.445ZM683.392 965.059C679.955 967.804 677.154 970.376 677.168 970.775C677.182 971.174 680.895 973.277 685.418 975.448C689.941 977.619 705.885 985.401 720.849 992.741L748.055 1006.09L757.644 1001.42C762.918 998.857 767.075 996.6 766.882 996.407C766.297 995.822 690.744 959.997 690.173 960.034C689.881 960.052 686.83 962.314 683.392 965.059ZM633.142 999C630.667 1000.56 628.08 1001.88 627.392 1001.92C626.705 1001.97 626.142 1002.4 626.142 1002.89C626.142 1004.09 675.519 1032 677.642 1032C680.334 1032 694.142 1027.76 694.142 1026.94C694.142 1026.22 689.771 1023.67 673.142 1014.7C669.017 1012.48 659.664 1007.36 652.358 1003.33C645.053 999.298 638.753 996.035 638.358 996.079C637.964 996.122 635.617 997.436 633.142 999ZM578.28 1023.57C571.627 1026 569.967 1027.02 571.642 1027.65C572.192 1027.86 579.842 1032.53 588.642 1038.01C597.442 1043.5 605.68 1048 606.949 1048C610.637 1048 623.143 1045.77 623.136 1045.1C623.132 1044.77 621.895 1043.78 620.386 1042.91C618.877 1042.03 610.442 1036.91 601.642 1031.54C592.842 1026.17 585.417 1021.65 585.142 1021.51C584.867 1021.37 581.779 1022.3 578.28 1023.57ZM510.207 1039.14C507.218 1039.63 504.58 1040.23 504.346 1040.46C504.112 1040.7 508.504 1043.85 514.107 1047.48L524.293 1054.07L534.951 1053.78L545.608 1053.5L540.125 1050.09C537.109 1048.22 531.684 1044.73 528.069 1042.34C521.116 1037.75 519.89 1037.53 510.207 1039.14Z" fill="#00B5B5"/>
<path d="M1473.74 752.033C1430.74 752.033 1394.24 742.533 1364.24 723.533C1334.24 704.533 1311.34 678.133 1295.54 644.333C1279.94 610.533 1272.14 571.433 1272.14 527.033C1272.14 482.633 1279.94 443.533 1295.54 409.733C1311.34 375.933 1334.24 349.533 1364.24 330.533C1394.24 311.533 1430.74 302.033 1473.74 302.033C1516.94 302.033 1553.54 311.533 1583.54 330.533C1613.54 349.533 1636.34 375.933 1651.94 409.733C1667.54 443.533 1675.34 482.633 1675.34 527.033C1675.34 571.433 1667.54 610.533 1651.94 644.333C1636.34 678.133 1613.54 704.533 1583.54 723.533C1553.54 742.533 1516.94 752.033 1473.74 752.033ZM1473.74 701.033C1505.94 701.233 1532.74 694.033 1554.14 679.433C1575.74 664.633 1591.84 644.133 1602.44 617.933C1613.24 591.733 1618.64 561.433 1618.64 527.033C1618.64 492.433 1613.24 462.133 1602.44 436.133C1591.84 410.133 1575.74 389.833 1554.14 375.233C1532.74 360.633 1505.94 353.233 1473.74 353.033C1441.54 352.833 1414.74 360.033 1393.34 374.633C1372.14 389.233 1356.14 409.633 1345.34 435.833C1334.54 462.033 1329.04 492.433 1328.84 527.033C1328.64 561.433 1333.94 591.633 1344.74 617.633C1355.54 643.633 1371.64 664.033 1393.04 678.833C1414.64 693.433 1441.54 700.833 1473.74 701.033ZM1795.6 743.033V311.033H1844.2L2007.4 655.133L2169.7 311.033H2218.9V742.733H2168.2V428.333L2021.5 743.033H1993L1846.3 428.333V743.033H1795.6ZM2537.92 752.033C2508.32 752.033 2481.32 746.833 2456.92 736.433C2432.52 726.033 2411.52 711.133 2393.92 691.733C2376.32 672.133 2362.72 648.533 2353.12 620.933C2343.72 593.133 2339.02 561.833 2339.02 527.033C2339.02 481.033 2347.22 441.233 2363.62 407.633C2380.02 374.033 2403.12 348.133 2432.92 329.933C2462.72 311.533 2497.72 302.333 2537.92 302.333C2586.32 302.333 2625.32 313.633 2654.92 336.233C2684.52 358.633 2704.92 389.333 2716.12 428.333L2662.12 439.433C2653.12 413.233 2638.32 392.333 2617.72 376.733C2597.12 361.133 2571.42 353.333 2540.62 353.333C2508.42 353.133 2481.62 360.333 2460.22 374.933C2439.02 389.333 2423.02 409.633 2412.22 435.833C2401.42 462.033 2395.92 492.433 2395.72 527.033C2395.52 561.433 2400.82 591.633 2411.62 617.633C2422.42 643.633 2438.52 664.033 2459.92 678.833C2481.52 693.433 2508.42 700.833 2540.62 701.033C2568.42 701.233 2591.82 695.933 2610.82 685.133C2629.82 674.333 2644.52 658.733 2654.92 638.333C2665.32 617.933 2671.62 593.433 2673.82 564.833H2582.02V520.733H2730.22C2730.82 524.733 2731.12 529.533 2731.12 535.133C2731.32 540.533 2731.42 544.233 2731.42 546.233C2731.42 585.633 2724.02 620.933 2709.22 652.133C2694.62 683.133 2672.92 707.533 2644.12 725.333C2615.52 743.133 2580.12 752.033 2537.92 752.033Z" fill="white"/>
</g>
<defs>
<clipPath id="clip0_2477_658">
<rect width="2751" height="1055" fill="white"/>
</clipPath>
</defs>
</svg>
